# xmcd
#
# Track frame offsets: 
#        150
#        15162
#        31737
#        46150
#        62725
#        75162
#        96525
#        111300
#        123837
#        136337
#        151362
#        163912
#        178975
#        192350
#        204550
#        217350
#
# Disc length: 3022 seconds
#
# Revision: 0
# Processed by: cddbd v1.5.2PL0 Copyright (c) Steve Scherf et al.
# Submitted via: ExactAudioCopy v1.3
#
DISCID=dc0bcc10
DTITLE=Gamblers and Lovers - 16 Hits For Winners and Losers
DYEAR=1995
DGENRE=Country
TTITLE0=The Gambler
TTITLE1=I Feel Lucky
TTITLE2=Bet Your Heart On Me
TTITLE3=Walking Away A Winner
TTITLE4=A Good Run Of Bad Luck
TTITLE5=The Winner Takes It All
TTITLE6=Queen Of Hearts
TTITLE7=Tumblin' Dice
TTITLE8=Hey Bartender
TTITLE9=I always Get Lucky With You
TTITLE10=She's Got A Drinking Problem
TTITLE11=Love In The First Degree
TTITLE12=Everything From Jesus To Jack Daniels
TTITLE13=If I Keep On Going Crazy
TTITLE14=One Of A Kind Pair Of Fools
TTITLE15=From A Jack To A King
EXTD=
EXTT0=
EXTT1=
EXTT2=
EXTT3=
EXTT4=
EXTT5=
EXTT6=
EXTT7=
EXTT8=
EXTT9=
EXTT10=
EXTT11=
EXTT12=
EXTT13=
EXTT14=
EXTT15=
PLAYORDER=
